<?xml version="1.0" encoding="utf-8"?>
<!-- Generator: Adobe Illustrator 24.0.0, SVG Export Plug-In . SVG Version: 6.00 Build 0)  -->
<svg version="1.1" id="Layer_1" xmlns="http://www.w3.org/2000/svg" xmlns:xlink="http://www.w3.org/1999/xlink" x="0px" y="0px"
	 viewBox="0 0 500 500" style="enable-background:new 0 0 500 500;" xml:space="preserve">
<style type="text/css">
	.st0{fill:#FFFFFF;}
	.st1{fill:url(#SVGID_1_);}
	.st2{fill:url(#SVGID_2_);}
	.st3{fill:url(#SVGID_3_);}
	.st4{fill:url(#SVGID_4_);}
	.st5{fill:url(#SVGID_5_);}
	.st6{fill:url(#SVGID_6_);}
	.st7{fill:url(#SVGID_7_);}
	.st8{fill:url(#SVGID_8_);}
</style>
<g>
	<rect class="st0" width="500" height="500"/>
</g>
<g>
	<linearGradient id="SVGID_1_" gradientUnits="userSpaceOnUse" x1="26.3536" y1="346.4655" x2="119.0361" y2="346.4655">
		<stop  offset="0.1732" style="stop-color:#4D63F6"/>
		<stop  offset="0.648" style="stop-color:#1D45D8"/>
	</linearGradient>
	<path class="st1" d="M97.2,285.2c6.8,3.9,12.1,9.2,16,16c3.9,6.8,5.9,14.1,5.9,22.1c0,7.9-2,15.3-5.9,22c-3.9,6.7-9.2,12.1-16,16
		c-6.8,4-14.1,5.9-22.1,5.9H51.3v46.4H26.4V279.3h48.7C83,279.3,90.4,281.3,97.2,285.2z M75.1,343.2c5.5,0,10.2-1.9,14.2-5.9
		c4-3.9,5.9-8.6,5.9-14.1c0-5.6-2-10.4-5.9-14.3c-3.9-3.9-8.7-5.9-14.3-5.9H51.3v40.1H75.1z"/>
	<linearGradient id="SVGID_2_" gradientUnits="userSpaceOnUse" x1="116.3507" y1="365.7505" x2="216.1347" y2="365.7505">
		<stop  offset="0.1732" style="stop-color:#4D63F6"/>
		<stop  offset="0.648" style="stop-color:#1D45D8"/>
	</linearGradient>
	<path class="st2" d="M192.3,317.7h23.8v95.9h-23.8v-10c-7.2,8.4-16.4,12.7-27.8,12.7c-9.6,0-18-2.2-25.3-6.5
		c-7.3-4.3-12.9-10.4-16.9-18c-4-7.7-5.9-16.3-5.9-25.9c0-9.6,2-18.2,5.9-25.9c4-7.7,9.6-13.7,16.9-18.1c7.3-4.4,15.7-6.6,25.3-6.6
		c11.1,0,20.4,4.2,27.8,12.7V317.7z M184.6,386c5.2-5.4,7.8-12.2,7.8-20.3c0-8.2-2.6-14.9-7.7-20.1c-5.1-5.2-11.6-7.9-19.6-7.9
		c-7.4,0-13.5,2.8-18.2,8.3c-4.7,5.5-7.1,12.2-7.1,20c0,7.9,2.4,14.6,7.1,20.1c4.7,5.4,10.8,8.2,18.2,8.2
		C172.9,394.1,179.4,391.4,184.6,386z"/>
	<linearGradient id="SVGID_3_" gradientUnits="userSpaceOnUse" x1="220.7375" y1="384.9238" x2="320.7124" y2="384.9238">
		<stop  offset="0.1732" style="stop-color:#4D63F6"/>
		<stop  offset="0.648" style="stop-color:#1D45D8"/>
	</linearGradient>
	<path class="st3" d="M295.8,317.7h24.9l-33.6,96.1c-5,13.2-11.9,23.1-20.6,29.6c-8.8,6.6-19.1,9.4-31,8.5v-23
		c0.8,0.1,1.9,0.2,3.5,0.2c10.2,0,18.2-6.2,24-18.6l-42.2-92.9h25.5l28.2,61L295.8,317.7z"/>
	<linearGradient id="SVGID_4_" gradientUnits="userSpaceOnUse" x1="319.3665" y1="346.4655" x2="446.0155" y2="346.4655">
		<stop  offset="0.1732" style="stop-color:#4D63F6"/>
		<stop  offset="0.648" style="stop-color:#1D45D8"/>
	</linearGradient>
	<path class="st4" d="M446,413.6h-26.7l-10-27.1h-53.2l-10,27.1h-26.9l49.9-134.3h26.9L446,413.6z M382.9,315.2L365,362.8h35.5
		L382.9,315.2z"/>
	<linearGradient id="SVGID_5_" gradientUnits="userSpaceOnUse" x1="448.7016" y1="346.4655" x2="473.6464" y2="346.4655">
		<stop  offset="0.1732" style="stop-color:#4D63F6"/>
		<stop  offset="0.648" style="stop-color:#1D45D8"/>
	</linearGradient>
	<path class="st5" d="M448.7,413.6V279.3h24.9v134.3H448.7z"/>
</g>
<g>
	
		<linearGradient id="SVGID_6_" gradientUnits="userSpaceOnUse" x1="139.6681" y1="2149.0315" x2="360.3319" y2="2149.0315" gradientTransform="matrix(1 0 0 1 0 -1948)">
		<stop  offset="0.1732" style="stop-color:#4D63F6"/>
		<stop  offset="0.648" style="stop-color:#1D45D8"/>
	</linearGradient>
	<path class="st6" d="M247.2,143.4l-104.1,52.1c-4.6,2.3-4.6,8.8,0,11.1l104.1,52.1c1.7,0.9,3.8,0.9,5.6,0l104.1-52.1
		c4.6-2.3,4.6-8.8,0-11.1l-104.1-52.1C251,142.5,249,142.5,247.2,143.4z"/>
	
		<linearGradient id="SVGID_7_" gradientUnits="userSpaceOnUse" x1="139.6681" y1="2101.5693" x2="360.3319" y2="2101.5693" gradientTransform="matrix(1 0 0 1 0 -1948)">
		<stop  offset="5.586600e-03" style="stop-color:#98AFFF"/>
		<stop  offset="0.6927" style="stop-color:#4D63F6"/>
	</linearGradient>
	<path class="st7" d="M247.2,96L143.1,148c-4.6,2.3-4.6,8.8,0,11.1l104.1,52.1c1.7,0.9,3.8,0.9,5.6,0l104.1-52.1
		c4.6-2.3,4.6-8.8,0-11.1L252.8,96C251,95.1,249,95.1,247.2,96z"/>
	
		<linearGradient id="SVGID_8_" gradientUnits="userSpaceOnUse" x1="139.6681" y1="2054.1072" x2="360.3319" y2="2054.1072" gradientTransform="matrix(1 0 0 1 0 -1948)">
		<stop  offset="0" style="stop-color:#D7E3FF"/>
		<stop  offset="1" style="stop-color:#8AA3FF"/>
	</linearGradient>
	<path class="st8" d="M247.2,48.5l-104.1,52.1c-4.6,2.3-4.6,8.8,0,11.1l104.1,52.1c1.7,0.9,3.8,0.9,5.6,0l104.1-52.1
		c4.6-2.3,4.6-8.8,0-11.1L252.8,48.5C251,47.6,249,47.6,247.2,48.5z"/>
</g>
</svg>
