<svg xmlns="http://www.w3.org/2000/svg" width="512" height="512" style="background:#000"><path fill="#fff" d="M232.28 91.705c0 15.016-.882 15.9-23.848 23.849-16.783 5.3-30.916 15.016-51.231 35.331-15.9 15.9-32.683 30.916-37.982 33.565-12.367 6.184-15.016 30.033-3.534 37.983 20.317 15.016 40.632 0 37.1-26.5-2.65-15.016-.884-19.432 13.249-33.565 35.331-35.332 84.796-47.698 133.377-33.565 22.083 6.183 32.682 13.25 52.115 31.799 13.249 14.132 23.848 27.382 23.848 30.032 0 9.716-26.498 6.183-31.798-4.417-2.65-4.416-15.9-15.016-29.149-22.966-34.449-19.432-74.197-19.432-107.762 0q-38.424 22.525-31.798 31.8c1.766 2.65 19.432 16.782 38.864 30.915 20.316 14.132 37.982 27.382 38.865 29.148 1.767 1.767-15.899 16.784-38.865 32.682-22.965 15.016-41.514 30.033-41.514 31.8s6.183 8.832 13.25 15.899c42.397 39.748 113.944 38.865 152.81-3.533 10.599-10.6 37.097-16.784 37.097-7.95 0 10.6-30.915 38.865-55.647 51.23-40.631 20.316-78.614 20.316-118.362 0-37.981-18.548-52.997-36.214-49.464-58.297 2.65-14.133.883-19.433-7.066-26.499-8.833-7.95-10.6-8.833-22.083-1.767-22.083 12.367-18.549 23.85 17.665 60.065 29.15 29.149 69.781 54.764 86.565 54.764 3.532 0 5.299 6.183 5.299 16.783 0 14.132 1.766 15.899 10.599 15.016 7.066-1.767 10.6-5.3 10.6-13.25 0-7.066 2.65-12.366 7.95-13.25 6.183-.882 7.95 1.767 7.95 13.25 0 12.366 1.766 14.133 10.599 13.25 7.95-1.767 9.715-4.417 9.715-15.016-.882-11.483 1.768-14.133 27.383-25.616 15.9-7.066 35.332-18.549 44.165-25.616 13.25-11.482 41.515-54.764 42.398-63.597 0-1.767-14.133-3.533-31.799-3.533-30.032 0-31.798.883-42.398 14.133-13.25 18.549-45.048 32.682-69.78 30.916l-19.433-.884 63.598-45.048 62.714-44.165-63.597-45.931-63.598-45.049 17.666-1.766c22.083-1.767 64.48 17.666 75.08 34.449 7.066 9.715 10.6 11.483 39.748 11.483 16.784 0 31.8-1.767 31.8-4.417 0-1.766-7.95-15.016-16.784-29.15-18.548-27.38-47.698-51.23-71.546-60.063-20.316-6.183-22.083-7.95-23.85-24.732-1.766-9.716-4.416-14.133-12.365-15.016-7.95-.883-9.716.882-9.716 15.016 0 15.9-.884 16.782-9.717 11.483-5.3-2.65-8.833-8.833-7.95-15.016.883-7.067-.883-10.6-8.833-11.483-8.833-.883-10.6.882-10.6 15.016m77.73 144.86c13.25 8.833 23.85 17.666 23.85 19.433 0 3.533-100.696 76.847-112.179 81.263-3.533.883-10.6-1.766-16.782-7.066l-10.6-7.95 44.165-31.799c24.732-17.666 45.048-33.565 45.048-34.448-.883-1.767-20.316-15.9-44.164-32.682-23.85-15.9-43.282-30.915-43.282-31.799 0-1.766 5.3-6.183 12.366-10.6 12.366-7.066 12.366-7.066 45.048 15.9 17.665 12.366 43.282 30.032 56.53 39.748M137.769 200.35c3.534 5.3-5.3 10.6-11.482 7.067-5.3-3.533-1.768-11.483 4.416-11.483 2.65 0 5.3 1.767 7.066 4.416m0 105.995c3.534 5.3-5.3 10.6-11.482 7.067-5.3-3.534-1.768-11.483 4.416-11.483 2.65 0 5.3 1.766 7.066 4.416"/></svg>